<svg width="273" height="336" viewBox="0 0 273 336" fill="none" xmlns="http://www.w3.org/2000/svg">
<path d="M254.556 45.582C249.767 45.5873 245.175 47.4914 241.788 50.8769C238.4 54.2624 236.494 58.8529 236.486 63.642V150.032C236.486 151.093 236.064 152.11 235.314 152.86C234.564 153.611 233.547 154.032 232.486 154.032C231.425 154.032 230.407 153.611 229.657 152.86C228.907 152.11 228.486 151.093 228.486 150.032V21.182C228.48 15.5663 226.247 10.1822 222.276 6.21133C218.305 2.24046 212.921 0.00730948 207.306 0.00201418C204.466 -0.03732 201.647 0.499822 199.021 1.58096C196.395 2.6621 194.015 4.26475 192.026 6.29199C188.183 10.3342 186.066 15.7149 186.126 21.292V150.032C186.126 151.093 185.704 152.11 184.954 152.86C184.204 153.611 183.187 154.032 182.126 154.032C181.065 154.032 180.047 153.611 179.297 152.86C178.547 152.11 178.126 151.093 178.126 150.032V22.862C178.118 16.8016 175.707 10.9917 171.421 6.7063C167.136 2.42094 161.326 0.00995186 155.266 0.00201418C140.956 0.00201418 132.406 12.362 132.406 24.302V150.032C132.406 151.093 131.984 152.11 131.234 152.86C130.484 153.611 129.467 154.032 128.406 154.032C127.345 154.032 126.327 153.611 125.577 152.86C124.827 152.11 124.406 151.093 124.406 150.032V47.032C124.4 41.4164 122.167 36.0322 118.196 32.0613C114.226 28.0905 108.841 25.8573 103.226 25.852C89.9657 25.852 82.0457 37.302 82.0457 48.382V204.672H129.046C138.318 204.67 147.481 206.667 155.911 210.527C164.341 214.388 171.84 220.021 177.896 227.042C178.589 227.844 178.935 228.889 178.858 229.947C178.781 231.004 178.288 231.988 177.486 232.682C176.683 233.375 175.638 233.721 174.581 233.645C173.523 233.568 172.539 233.074 171.846 232.272C166.54 226.121 159.97 221.186 152.584 217.803C145.198 214.421 137.169 212.671 129.046 212.672H78.0457C77.8682 212.666 77.6912 212.649 77.5157 212.622H77.3057C76.978 212.552 76.6592 212.444 76.3557 212.302L76.1457 212.192C75.8831 212.046 75.6353 211.876 75.4057 211.682L75.3057 211.602L55.4757 192.972C48.3475 186.22 38.8648 182.518 29.0474 182.654C19.2299 182.791 9.85364 186.755 2.9157 193.702C1.10324 195.491 0.0583698 197.915 0.00237216 200.461C-0.0536255 203.007 0.883664 205.475 2.61571 207.342L77.7257 288.832C107.856 322.232 138.476 335.832 183.416 335.832C232.606 335.832 272.626 295.402 272.626 245.692V64.532C272.666 55.342 266.296 45.582 254.556 45.582Z" fill="white"/>
</svg>
