<svg width="238" height="259" viewBox="0 0 238 259" fill="none" xmlns="http://www.w3.org/2000/svg">
<path d="M180.49 81.0048V27.6048C180.49 20.5527 177.689 13.7894 172.702 8.80283C167.715 3.81623 160.952 1.01477 153.9 1.01477C146.848 1.01477 140.085 3.81623 135.098 8.80283C130.111 13.7894 127.31 20.5527 127.31 27.6048V79.5348H174.21C176.388 79.5387 178.536 80.0416 180.49 81.0048V81.0048Z" fill="#FEFEFE"/>
<path d="M57.47 79.5348V25.5847C57.47 19.6916 55.129 14.0399 50.9619 9.87283C46.7949 5.70577 41.1431 3.36475 35.25 3.36475C29.3569 3.36475 23.7052 5.70577 19.5381 9.87283C15.3711 14.0399 13.03 19.6916 13.03 25.5847V92.0647C23.05 83.9491 35.5557 79.5252 48.45 79.5348H57.47Z" fill="#FEFEFE"/>
<path d="M213.22 135.065C207.48 135.059 201.842 133.544 196.873 130.67C191.904 127.797 187.778 123.667 184.91 118.695C181.215 127.874 174.862 135.739 166.666 141.282C158.47 146.825 148.805 149.793 138.91 149.805H105.67C113.668 154.68 120.278 161.529 124.866 169.695C129.454 177.86 131.866 187.068 131.87 196.435V211.435C131.87 212.496 131.449 213.513 130.698 214.263C129.948 215.013 128.931 215.435 127.87 215.435C126.809 215.435 125.792 215.013 125.042 214.263C124.291 213.513 123.87 212.496 123.87 211.435V196.435C123.854 184.073 118.936 172.221 110.195 163.48C101.453 154.739 89.6022 149.821 77.24 149.805H76.53C75.4691 149.805 74.4517 149.383 73.7016 148.633C72.9514 147.883 72.53 146.866 72.53 145.805C72.53 144.744 72.9514 143.727 73.7016 142.976C74.4517 142.226 75.4691 141.805 76.53 141.805H138.92C149.94 141.794 160.506 137.412 168.299 129.621C176.093 121.83 180.477 111.265 180.49 100.245V93.8148C180.49 92.1492 179.828 90.5519 178.651 89.3741C177.473 88.1964 175.876 87.5348 174.21 87.5348H48.45C41.4179 87.5352 34.4704 89.0678 28.0909 92.0261C21.7115 94.9845 16.0532 99.2974 11.51 104.665C10.84 105.455 10.18 106.255 9.56999 107.085C9.30999 107.425 9.07 107.775 8.83 108.085C8.22 108.945 7.63 109.815 7.08 110.715C6.9 111.005 6.73 111.305 6.56 111.605C6 112.605 5.47 113.545 4.97 114.535L4.73 115.025C4.17 116.185 3.66999 117.365 3.20999 118.565C3.14999 118.725 3.07999 118.875 3.01999 119.035C2.56999 120.245 2.17 121.485 1.81 122.735C1.81 122.895 1.71999 123.055 1.67999 123.215C1.32999 124.475 1.03999 125.745 0.799988 127.025L0.709991 127.525C0.479991 128.815 0.299993 130.125 0.179993 131.435C0.179993 131.585 0.179993 131.735 0.179993 131.895C0.0699927 133.255 0 134.615 0 135.985C0 139.285 0.159998 142.535 0.419998 145.765C5.42 208.615 58.13 258.225 122.24 258.225H136.78C163.601 258.185 189.312 247.514 208.278 228.55C227.244 209.585 237.918 183.875 237.96 157.055V123.715C234.895 127.275 231.099 130.132 226.829 132.091C222.56 134.05 217.918 135.064 213.22 135.065Z" fill="#FEFEFE"/>
<path d="M119.31 27.9048C119.31 20.7651 116.474 13.9179 111.425 8.86945C106.377 3.82097 99.5296 0.984741 92.39 0.984741C85.2503 0.984741 78.4031 3.82097 73.3546 8.86945C68.3062 13.9179 65.47 20.7651 65.47 27.9048V79.5048H119.31V27.9048Z" fill="#FEFEFE"/>
<path d="M213.22 39.9948C206.662 40.0027 200.375 42.6121 195.738 47.2503C191.102 51.8885 188.495 58.1766 188.49 64.7347V102.335C188.62 108.809 191.283 114.974 195.908 119.506C200.532 124.039 206.75 126.577 213.225 126.577C219.7 126.577 225.918 124.039 230.542 119.506C235.167 114.974 237.83 108.809 237.96 102.335V64.7347C237.952 58.1757 235.343 51.8876 230.705 47.2497C226.067 42.6118 219.779 40.0027 213.22 39.9948V39.9948Z" fill="#FEFEFE"/>
</svg>
