<svg width="229" height="368" viewBox="0 0 229 368" fill="none" xmlns="http://www.w3.org/2000/svg">
<path d="M139.41 135.33C139.05 135.45 138.717 135.58 138.41 135.72C138.06 135.86 137.71 136 137.41 136.16C137.11 136.32 136.69 136.49 136.34 136.67L135.42 137.16C135.04 137.37 134.67 137.6 134.31 137.84C133.95 138.08 133.79 138.16 133.53 138.34C133.27 138.52 132.76 138.9 132.39 139.2C132.17 139.37 131.95 139.53 131.74 139.71C129.007 141.991 126.807 144.845 125.297 148.069C123.787 151.293 123.003 154.81 123 158.37V202.21H161.27C165.009 202.203 168.663 203.33 171.75 205.44V158.37C171.743 152.34 169.503 146.527 165.463 142.05C161.422 137.574 155.868 134.753 149.87 134.13C149.043 134.041 148.212 133.998 147.38 134C146.605 134 145.831 134.04 145.06 134.12C144.75 134.12 144.44 134.2 144.14 134.24C143.84 134.28 143.24 134.36 142.8 134.45C142.36 134.54 142.07 134.61 141.71 134.69C141.35 134.77 140.97 134.87 140.6 134.98L139.41 135.33Z" fill="white"/>
<path d="M75.0397 202.485H115.04V158.645C115.042 154.25 115.942 149.901 117.686 145.867C119.429 141.833 121.98 138.198 125.18 135.185L140.49 26.2548C141.198 20.358 139.566 14.4185 135.944 9.71163C132.322 5.00471 126.999 1.90557 121.117 1.07958C115.236 0.253579 109.265 1.76656 104.487 5.29372C99.7081 8.82087 96.5032 14.081 95.5598 19.9448L74.3398 165.465C74.2039 166.418 73.7285 167.291 73.001 167.922C72.2736 168.553 71.3428 168.9 70.3797 168.9C69.4166 168.9 68.4858 168.553 67.7584 167.922C67.0309 167.291 66.5556 166.418 66.4197 165.465L45.1497 19.5348C44.7361 16.5846 43.7453 13.7448 42.2342 11.1776C40.723 8.61029 38.721 6.36579 36.3425 4.57222C33.9639 2.77866 31.2554 1.47115 28.3715 0.724352C25.4876 -0.0224449 22.4849 -0.19389 19.5347 0.219774C16.5846 0.633438 13.7448 1.62412 11.1776 3.13527C8.61028 4.64642 6.36577 6.64842 4.57221 9.02699C2.77864 11.4056 1.4711 14.1141 0.724308 16.998C-0.0224881 19.8819 -0.193873 22.8846 0.219792 25.8348C6.08979 69.6348 10.5297 100.885 13.7797 123.705C21.9997 181.495 23.3897 191.335 23.6297 232.235C28.8341 223.2 36.3249 215.695 45.3492 210.472C54.3735 205.25 64.6134 202.495 75.0397 202.485V202.485Z" fill="white"/>
<path d="M204.38 160C197.916 160.008 191.72 162.579 187.15 167.15C182.579 171.72 180.008 177.916 180 184.38V218.7C180.127 219.551 180.194 220.41 180.2 221.27C180.2 221.47 180.2 221.68 180.2 221.88C180.912 228.064 183.964 233.74 188.73 237.744C193.496 241.748 199.614 243.776 205.827 243.411C212.041 243.047 217.88 240.317 222.144 235.783C226.409 231.249 228.776 225.255 228.76 219.03V184.37C228.752 177.907 226.181 171.712 221.61 167.143C217.039 162.574 210.843 160.005 204.38 160V160Z" fill="white"/>
<path d="M204.45 251.76C199.098 251.758 193.83 250.429 189.118 247.891C184.406 245.354 180.397 241.687 177.45 237.22C174.261 245.759 168.541 253.12 161.056 258.321C153.57 263.521 144.675 266.312 135.56 266.32H119.56C126.872 270.952 132.896 277.356 137.073 284.938C141.249 292.52 143.443 301.034 143.45 309.69V323.69C143.45 324.751 143.029 325.768 142.278 326.518C141.528 327.269 140.511 327.69 139.45 327.69C138.389 327.69 137.372 327.269 136.622 326.518C135.871 325.768 135.45 324.751 135.45 323.69V309.69C135.423 298.195 130.84 287.18 122.704 279.059C114.569 270.938 103.545 266.375 92.0499 266.37C90.9891 266.37 89.9717 265.949 89.2216 265.198C88.4714 264.448 88.0499 263.431 88.0499 262.37C88.0499 261.309 88.4714 260.292 89.2216 259.542C89.9717 258.791 90.9891 258.37 92.0499 258.37H135.57C144.268 258.374 152.682 255.275 159.3 249.63C162.57 246.844 165.331 243.511 167.46 239.78C170.466 234.508 172.105 228.568 172.23 222.5C172.23 222.23 172.23 221.96 172.23 221.68C172.22 221.123 172.163 220.568 172.06 220.02C172.06 219.89 172.06 219.76 172.06 219.63C171.581 217.201 170.275 215.014 168.364 213.44C166.453 211.866 164.055 211.004 161.58 211H75.36C61.7432 211.021 48.6904 216.44 39.0629 226.07C29.4353 235.699 24.0185 248.753 24 262.37V262.37C24 292.96 35.51 320.6 56.4 340.19C66.6695 349.744 78.7821 357.099 91.9951 361.806C105.208 366.512 119.243 368.47 133.24 367.56C186.83 364.09 228.82 317.56 228.82 261.72V240.72C225.783 244.195 222.036 246.978 217.832 248.883C213.628 250.787 209.065 251.768 204.45 251.76V251.76Z" fill="white"/>
</svg>
